<!-- by TradingView --><svg width="56" height="56" viewBox="0 0 56 56" xmlns="http://www.w3.org/2000/svg"><path fill="#F0F3FA" d="M0 0h56v56H0z"/><path d="M8.04 24.74a4.07 4.07 0 0 1 4.35 1.17c.4.5.6 1.08.6 1.75l.01 3.3c0 .69.74 1.31 1.51 1.31.87 0 1.49-.53 1.49-1.3V27.6c0-1.88 1.45-2.98 3.26-3.06.05 0 .08.02.08.08v1.6l-.02.04a.06.06 0 0 1-.04.01A1.3 1.3 0 0 0 18 27.62v3c0 .46-.03.84-.13 1.14a2.93 2.93 0 0 1-2.12 2.1c-.75.19-1.5.18-2.25-.01-1.06-.28-2.06-1.05-2.38-2.08a3.6 3.6 0 0 1-.12-1.1v-3.1c-.02-1.33-2.18-1.81-2.85-.61-.09.16-.15.33-.15.5v3.16c0 .49-.03.9-.15 1.22-.5 1.36-1.32 2.15-2.8 2.15 0 0-.02 0-.03-.02a.06.06 0 0 1-.02-.04v-1.57c0-.05.02-.07.07-.08.76-.07.93-.92.93-1.56v-7.25c0-.62.1-1.08.21-1.38.55-1.33 2.26-2.06 3.72-2.09.05 0 .07.03.07.07v1.57c0 .05-.02.08-.08.08-.79.07-1.94.65-1.92 1.41v1.58a.03.03 0 0 0 .01.03.04.04 0 0 0 .03 0ZM45.96 26.41c-.54.3-.96.8-.96 1.43v2.92c0 .43-.02.79-.11 1.08-.45 1.37-1.52 2.16-2.85 2.15l-.03-.01-.01-.04v-1.58c0-.02 0-.04.02-.06a.07.07 0 0 1 .05-.02c.84-.08.93-.88.93-1.55v-3.07c0-.67.25-1.28.63-1.78 1.3-1.74 4.3-1.78 5.68-.13.56.67.7 1.36.69 2.28v2.83c0 .77.19 1.34.92 1.42.02 0 .04 0 .06.03a.1.1 0 0 1 .02.06v1.56l-.01.02a.07.07 0 0 1-.04.04h-.02c-1.71-.03-2.95-1.24-2.93-3.2v-3.25c0-.97-1.26-1.55-2.04-1.13ZM30.27 21.8c-.39.77-.27 2.62-.27 2.62 0 .06-.15.13-.2.13h-1.16a.04.04 0 0 0-.04.02v1.66a.05.05 0 0 0 .05.04H30v4.6c0 1.58-2.32 2-2.91.66a1.73 1.73 0 0 1-.09-.7V27.7c0-1.59-1.18-2.72-2.64-3.05-1.4-.31-3.05.16-3.87 1.4-.31.48-.5.93-.49 1.34v2.73c0 .55.02 1 .07 1.38.16 1.19 1.33 2.13 2.44 2.39 1.23.28 2.33.07 3.31-.65.04-.02.07-.02.1 0 .79.61 1.73.86 2.84.73 1.7-.18 3.26-1.35 3.24-3.15v-4.54h1.28c.02 0 .04 0 .06-.02a.08.08 0 0 0 .02-.06v-1.57c0-.05-.02-.07-.07-.07h-1.14c-.05 0-.15-.08-.15-.13v-1.14c-.02-.9.46-1.43 1.3-1.57.04 0 .06-.03.06-.07v-1.57c0-.05-.02-.07-.07-.07-1.32.05-2.42.6-3.02 1.8Zm-6.84 4.49h.14c.79 0 1.43.54 1.43 1.23v3.5c0 .69-.62 1.24-1.41 1.25h-.13c-.8 0-1.46-.55-1.46-1.23v-3.51c0-.69.64-1.24 1.43-1.24ZM41 27.7c0-1.36-.82-2.4-2.06-2.88-1.8-.68-4.01-.07-4.77 1.87-.12.3-.18.8-.17 1.5v2.29c0 .5.03.91.13 1.27.33 1.18 1.52 2 2.68 2.19 1.45.23 2.97-.25 3.77-1.54.27-.45.42-.9.42-1.34v-3.37Zm-3.57-1.41h.14c.79 0 1.43.56 1.43 1.24v3.5c0 .69-.66 1.24-1.46 1.24h-.13c-.79 0-1.41-.56-1.41-1.24v-3.51c0-.68.64-1.24 1.43-1.23Z" fill="#0084CE"/></svg>